<?xml version="1.0" encoding="UTF-8" standalone="no"?>
<svg
   width="752pt"
   height="752pt"
   version="1.1"
   viewBox="0 0 752 752"
   id="svg32"
   sodipodi:docname="ear.svg"
   inkscape:version="1.2.1 (9c6d41e410, 2022-07-14)"
   xmlns:inkscape="http://www.inkscape.org/namespaces/inkscape"
   xmlns:sodipodi="http://sodipodi.sourceforge.net/DTD/sodipodi-0.dtd"
   xmlns="http://www.w3.org/2000/svg"
   xmlns:svg="http://www.w3.org/2000/svg">
  <defs
     id="defs36" />
  <sodipodi:namedview
     id="namedview34"
     pagecolor="#ffffff"
     bordercolor="#000000"
     borderopacity="0.25"
     inkscape:showpageshadow="2"
     inkscape:pageopacity="0.0"
     inkscape:pagecheckerboard="0"
     inkscape:deskcolor="#d1d1d1"
     inkscape:document-units="pt"
     showgrid="false"
     inkscape:zoom="0.5255984"
     inkscape:cx="176.94118"
     inkscape:cy="502.28463"
     inkscape:window-width="1366"
     inkscape:window-height="699"
     inkscape:window-x="0"
     inkscape:window-y="32"
     inkscape:window-maximized="1"
     inkscape:current-layer="svg32" />
  <g
     id="g30"
     transform="matrix(1.3608,0,0,1.3608,-135.94343,-135.65001)">
    <path
       d="m 510.26,346.54 c 5.1523,2.4883 11.168,2.4336 16.273,-0.14844 5.1094,-2.582 8.7188,-7.3906 9.7734,-13.016 4.418,-24.238 -1.5703,-49.215 -16.492,-68.816 -14.926,-19.605 -37.41,-32.02 -61.949,-34.211 -24.539,-2.1953 -48.867,6.043 -67.027,22.688 -18.164,16.648 -28.48,40.168 -28.43,64.805 v 56.074 c 0.0117,12.586 4.9961,24.66 13.863,33.59 8.8711,8.9336 20.906,14 33.496,14.098 2.9141,-0.0352 5.7227,1.0859 7.8086,3.1172 2.0859,2.0352 3.2812,4.8164 3.3203,7.7305 v 6.0625 c 0.10547,6.0391 -4.6641,11.043 -10.703,11.223 -4.9453,-0.0391 -9.6953,1.9102 -13.188,5.4102 -3.4922,3.5 -5.4297,8.2578 -5.3789,13.203 0.25391,5.168 2.5859,10.012 6.4648,13.438 3.8789,3.4258 8.9766,5.1367 14.137,4.7461 12.254,-0.57031 23.82,-5.8398 32.293,-14.711 8.4727,-8.8711 13.207,-20.664 13.219,-32.93 v -6.4414 c -0.0117,-12.59 -4.9961,-24.66 -13.863,-33.594 -8.8711,-8.9297 -20.91,-13.996 -33.496,-14.098 -2.9141,0.0391 -5.7227,-1.082 -7.8086,-3.1172 -2.0898,-2.0312 -3.2812,-4.8125 -3.3203,-7.7266 v -54.367 c -0.20312,-14.777 5.793,-28.961 16.527,-39.117 9.457,-8.6367 21.824,-13.383 34.629,-13.293 12.805,0.0898 25.105,5.0156 34.438,13.781 9.332,8.7695 15.008,20.738 15.895,33.516 0.25781,3.9883 0.0508,7.9922 -0.61328,11.934 -0.76562,4.0078 -0.1875,8.1562 1.6445,11.805 1.832,3.6445 4.8164,6.5859 8.4883,8.3672 z"
       id="path20" />
    <path
       d="m 557.86,199.21 c -32,-30.086 -75.16,-45.359 -118.96,-42.102 -28.289,2.0156 -55.512,11.586 -78.84,27.711 -23.324,16.129 -41.891,38.223 -53.766,63.973 -2.5391,6.0078 -1.7227,12.914 2.1484,18.164 3.875,5.25 10.23,8.0664 16.723,7.4102 6.4883,-0.65625 12.152,-4.6914 14.895,-10.609 16.305,-35.234 48.52,-60.512 86.621,-67.965 38.102,-7.4531 77.465,3.8203 105.84,30.316 24.926,23.059 38.918,55.602 38.504,89.555 -0.62891,32.578 -14.07,63.598 -37.414,86.332 l -21.973,21.832 c -11.914,11.91 -18.621,28.055 -18.66,44.898 v 24.91 c 0.19141,17.711 -6.7188,34.766 -19.18,47.355 -11.98,12.148 -28.688,18.43 -45.703,17.191 -20.578,-1.8359 -38.785,-14.078 -48.258,-32.441 -3.0508,-5.8203 -8.9805,-9.5664 -15.547,-9.832 -6.5664,-0.26562 -12.777,2.9922 -16.293,8.5469 -3.5117,5.5547 -3.7969,12.562 -0.74219,18.383 15.328,29.5 44.648,49.145 77.762,52.094 2.7148,0.22266 5.4141,0.33203 8.0977,0.33203 h 0.004 c 25.152,-0.11328 49.234,-10.195 66.961,-28.035 19.434,-19.664 30.195,-46.285 29.883,-73.926 v -24.531 c -0.0469,-7.1094 2.7695,-13.938 7.8164,-18.945 l 23.68,-23.68 c 30.426,-30.234 47.223,-71.562 46.516,-114.45 -0.70312,-42.891 -18.852,-83.645 -50.258,-112.86 z"
       id="path22" />
    <path
       d="m 171.93,362.74 c -5.5547,-2.6523 -12.066,-2.3555 -17.359,0.79297 -5.2891,3.1484 -8.6562,8.7305 -8.9766,14.879 -0.31641,6.1484 2.457,12.047 7.3945,15.727 7.1719,4.4297 12.293,11.527 14.238,19.734 1.9453,8.2031 0.55469,16.844 -3.8672,24.023 -3.1055,4.168 -4.3047,9.4531 -3.3008,14.555 1,5.0977 4.1094,9.5391 8.5586,12.223 4.4492,2.6875 9.8281,3.3672 14.805,1.875 4.9805,-1.4922 9.0977,-5.0195 11.336,-9.7109 9.5781,-15.574 12.496,-34.344 8.0977,-52.094 -4.3281,-17.547 -15.453,-32.656 -30.926,-42.004 z"
       id="path24" />
    <path
       d="m 211.57,312.82 c -5.5547,-2.6523 -12.07,-2.3555 -17.359,0.79297 -5.2891,3.1484 -8.6602,8.7305 -8.9766,14.879 -0.32031,6.1484 2.457,12.051 7.3945,15.727 20.488,12.426 35.152,32.531 40.727,55.836 5.6562,23.297 1.75,47.891 -10.844,68.293 -3.1055,4.168 -4.3047,9.4531 -3.3047,14.551 1,5.1016 4.1094,9.5391 8.5625,12.227 4.4492,2.6836 9.8242,3.3633 14.805,1.8711 4.9766,-1.4922 9.0938,-5.0156 11.336,-9.707 17.633,-28.738 23.039,-63.34 15.012,-96.09 -7.9023,-32.727 -28.551,-60.941 -57.352,-78.379 z"
       id="path26" />
    <path
       d="m 251.59,262.34 c -5.5547,-2.6562 -12.066,-2.3594 -17.359,0.78906 -5.2891,3.1484 -8.6562,8.7344 -8.9766,14.883 -0.31641,6.1484 2.457,12.047 7.3945,15.727 33.766,20.703 57.938,53.957 67.215,92.461 9.2773,38.504 2.9023,79.117 -17.727,112.93 -3.1055,4.168 -4.3047,9.4531 -3.3008,14.555 1,5.0977 4.1094,9.5391 8.5586,12.223 4.4492,2.6839 9.8281,3.3672 14.809,1.875 4.9766,-1.4922 9.0938,-5.0195 11.332,-9.7109 12.797,-20.844 21.336,-44.023 25.113,-68.191 3.7812,-24.168 2.7305,-48.844 -3.0898,-72.602 -5.7148,-23.754 -16.074,-46.141 -30.484,-65.871 -14.414,-19.727 -32.59,-36.402 -53.484,-49.066 z"
       id="path28" />
  </g>
</svg>
